<?xml version="1.0" encoding="UTF-8"?>
<!DOCTYPE svg  PUBLIC '-//W3C//DTD SVG 1.1//EN'  'http://www.w3.org/Graphics/SVG/1.1/DTD/svg11.dtd'>
<svg enable-background="new 0 0 100 100" version="1.1" viewBox="0 0 100 100" xml:space="preserve" xmlns="http://www.w3.org/2000/svg">
	<path d="m50 5c-24.813 0-45 20.187-45 45s20.187 45 45 45 45-20.188 45-45c0-24.813-20.187-45-45-45zm0 84.204c-21.617 0-39.204-17.587-39.204-39.204s17.587-39.204 39.204-39.204 39.204 17.587 39.204 39.204-17.587 39.204-39.204 39.204z"/>
	<path d="m50 10.796c-21.617 0-39.204 17.587-39.204 39.204s17.587 39.204 39.204 39.204 39.204-17.587 39.204-39.204-17.587-39.204-39.204-39.204zm-16.173 22.232l3.14-6.36 3.139 6.36 7.019 1.02-5.081 4.95 1.2 6.99-6.277-3.3-6.278 3.3 1.2-6.99-5.08-4.95 7.018-1.02zm37.423 28.674c-4e-3 0.043-0.016 0.083-0.021 0.126-0.017 0.199-0.051 0.393-0.105 0.58-1.729 10.113-10.517 17.821-21.124 17.821-10.608 0-19.393-7.707-21.122-17.822-0.055-0.186-0.091-0.381-0.107-0.58-6e-3 -0.043-0.017-0.083-0.023-0.126h0.011c-2e-3 -0.036-0.011-0.071-0.011-0.109 0-1.563 1.232-2.832 2.751-2.832h37.002c1.521 0 2.751 1.269 2.75 2.834 0 0.038-0.01 0.073-0.011 0.109h0.01zm-2.953-22.704l1.199 6.99-6.275-3.3-6.279 3.3 1.201-6.99-5.08-4.95 7.019-1.02 3.14-6.36 3.137 6.36 7.019 1.02-5.081 4.95z" fill="#FFF200"/>
	<path d="m68.501 58.759h-37.002c-1.519 0-2.751 1.269-2.751 2.832 0 0.038 9e-3 0.073 0.011 0.109h-0.011c6e-3 0.043 0.017 0.083 0.023 0.126 0.016 0.199 0.052 0.395 0.107 0.58 1.729 10.115 10.514 17.823 21.122 17.823 10.607 0 19.395-7.707 21.123-17.82 0.055-0.188 0.089-0.381 0.105-0.58 6e-3 -0.043 0.018-0.083 0.021-0.126h-0.01c1e-3 -0.036 0.011-0.071 0.011-0.109 2e-3 -1.567-1.229-2.835-2.749-2.835z"/>
	<polygon points="30.689 45.988 36.967 42.688 43.244 45.988 42.044 38.998 47.125 34.048 40.106 33.028 36.967 26.668 33.827 33.028 26.809 34.048 31.889 38.998"/>
	<polygon points="63.221 26.668 60.081 33.028 53.063 34.048 58.143 38.998 56.941 45.988 63.221 42.688 69.496 45.988 68.297 38.998 73.376 34.048 66.357 33.028"/>
</svg>
